<?xml version="1.0" encoding="UTF-8" standalone="no"?>
<svg
   xmlns:dc="http://purl.org/dc/elements/1.1/"
   xmlns:cc="http://creativecommons.org/ns#"
   xmlns:rdf="http://www.w3.org/1999/02/22-rdf-syntax-ns#"
   xmlns:svg="http://www.w3.org/2000/svg"
   xmlns="http://www.w3.org/2000/svg"
   version="1.1"
   id="svg2"
   viewBox="0 0 146.88648 42.271719"
   height="11.930018mm"
   width="41.454628mm">
  <defs
     id="defs4" />
  <metadata
     id="metadata7">
    <rdf:RDF>
      <cc:Work
         rdf:about="">
        <dc:format>image/svg+xml</dc:format>
        <dc:type
           rdf:resource="http://purl.org/dc/dcmitype/StillImage" />
        <dc:title></dc:title>
      </cc:Work>
    </rdf:RDF>
  </metadata>
  <g
     transform="translate(-79.073808,-67.53882)"
     id="layer1">
    <g
       id="text3336-7"
       style="font-style:normal;font-weight:normal;font-size:35px;line-height:125%;font-family:Sans;letter-spacing:0px;word-spacing:0px;fill:#000000;fill-opacity:1;stroke:none;stroke-width:1px;stroke-linecap:butt;stroke-linejoin:miter;stroke-opacity:1">
      <path
         id="path4150"
         style="font-style:normal;font-variant:normal;font-weight:500;font-stretch:normal;font-size:35px;font-family:Futura;-inkscape-font-specification:'Futura Medium';fill:#000000"
         d="m 83.31591,100.39859 0,-26.386719 3.964844,0 q 2.648926,0 4.221191,0.410157 1.589356,0.410156 2.683106,1.384277 1.11084,1.008301 1.760254,2.512207 0.666504,1.520996 0.666504,3.076172 0,2.836914 -2.17041,4.802246 2.10205,0.717773 3.315429,2.512207 1.230469,1.777344 1.230469,4.135742 0,3.093262 -2.1875,5.229492 -1.315918,1.315918 -2.956543,1.828614 -1.794434,0.495605 -4.494629,0.495605 l -6.032715,0 z m 3.981934,-15.056152 1.247559,0 q 2.221679,0 3.24707,-0.974121 1.04248,-0.991211 1.04248,-2.905274 0,-1.862793 -1.05957,-2.819824 -1.05957,-0.974121 -3.076172,-0.974121 l -1.401367,0 0,7.67334 z m 0,11.313476 2.460937,0 q 2.700196,0 3.964844,-1.05957 1.333008,-1.14502 1.333008,-2.905273 0,-1.708985 -1.281738,-2.871094 -1.247559,-1.14502 -4.46045,-1.14502 l -2.016601,0 0,7.980957 z" />
      <path
         id="path4152"
         style="font-style:normal;font-variant:normal;font-weight:500;font-stretch:normal;font-size:35px;font-family:Futura;-inkscape-font-specification:'Futura Medium';fill:#000000"
         d="m 108.54052,97.305328 -7.48535,-13.552246 4.46045,0 5.09277,9.570313 4.75098,-9.570313 4.34082,0 -13.26172,25.703128 -4.39209,0 6.49414,-12.150882 z" />
      <path
         id="path4154"
         style="font-style:normal;font-variant:normal;font-weight:500;font-stretch:normal;font-size:35px;font-family:Futura;-inkscape-font-specification:'Futura Medium';fill:#000000"
         d="m 126.26269,87.341949 0,13.056641 -3.84522,0 0,-13.056641 -1.64062,0 0,-3.588867 1.64062,0 0,-6.101074 3.84522,0 0,6.101074 2.99072,0 0,3.588867 -2.99072,0 z" />
      <path
         id="path4156"
         style="font-style:normal;font-variant:normal;font-weight:500;font-stretch:normal;font-size:35px;font-family:Futura;-inkscape-font-specification:'Futura Medium';fill:#000000"
         d="m 147.40282,92.981598 -11.92871,0 q 0.15381,2.050781 1.33301,3.26416 1.1792,1.196289 3.0249,1.196289 1.43555,0 2.37549,-0.683594 0.92285,-0.683593 2.10205,-2.529297 l 3.24707,1.811524 q -0.75195,1.281738 -1.58935,2.20459 -0.8374,0.905761 -1.79444,1.503906 -0.95703,0.581054 -2.06787,0.854494 -1.11084,0.27344 -2.40967,0.27344 -3.72558,0 -5.98144,-2.392582 -2.25586,-2.409668 -2.25586,-6.391602 0,-3.947754 2.1875,-6.391602 2.20459,-2.409668 5.84473,-2.409668 3.67431,0 5.81054,2.341309 2.11914,2.324219 2.11914,6.442871 l -0.0171,0.905762 z m -3.94775,-3.144531 q -0.80322,-3.076172 -3.87939,-3.076172 -0.70069,0 -1.31592,0.222168 -0.61524,0.205078 -1.12793,0.615234 -0.49561,0.393067 -0.85449,0.957031 -0.35889,0.563965 -0.54688,1.281739 l 7.72461,0 z" />
      <path
         id="path4158"
         style="font-style:normal;font-variant:normal;font-weight:500;font-stretch:normal;font-size:35px;font-family:Futura;-inkscape-font-specification:'Futura Medium';fill:#000000"
         d="m 163.89452,71.533844 3.86231,0 0,28.864746 -3.86231,0 0,-1.743164 q -2.27295,2.221684 -5.14404,2.221684 -3.41797,0 -5.67383,-2.495121 -2.23877,-2.546387 -2.23877,-6.357422 0,-3.725586 2.23877,-6.220703 2.22168,-2.512208 5.58838,-2.512208 2.92236,0 5.22949,2.392579 l 0,-14.150391 z m -9.12597,20.490723 q 0,2.392578 1.28174,3.896484 1.31591,1.520996 3.31543,1.520996 2.13623,0 3.45214,-1.469726 1.31592,-1.520997 1.31592,-3.862305 0,-2.341309 -1.31592,-3.862305 -1.31591,-1.486816 -3.41797,-1.486816 -1.98242,0 -3.31542,1.503906 -1.31592,1.520996 -1.31592,3.759766 z" />
      <path
         id="path4160"
         style="font-style:normal;font-variant:normal;font-weight:500;font-stretch:normal;font-size:35px;font-family:Futura;-inkscape-font-specification:'Futura Medium';fill:#000000"
         d="m 187.76904,92.981598 -11.92872,0 q 0.15381,2.050781 1.33301,3.26416 1.1792,1.196289 3.0249,1.196289 1.43555,0 2.37549,-0.683594 0.92285,-0.683593 2.10205,-2.529297 l 3.24707,1.811524 q -0.75195,1.281738 -1.58935,2.20459 -0.8374,0.905761 -1.79444,1.503906 -0.95703,0.581054 -2.06787,0.854494 -1.11084,0.27344 -2.40966,0.27344 -3.72559,0 -5.98145,-2.392582 -2.25586,-2.409668 -2.25586,-6.391602 0,-3.947754 2.1875,-6.391602 2.20459,-2.409668 5.84473,-2.409668 3.67431,0 5.81054,2.341309 2.11915,2.324219 2.11915,6.442871 l -0.0171,0.905762 z m -3.94776,-3.144531 q -0.80322,-3.076172 -3.87939,-3.076172 -0.70069,0 -1.31592,0.222168 -0.61524,0.205078 -1.12793,0.615234 -0.49561,0.393067 -0.85449,0.957031 -0.35889,0.563965 -0.54688,1.281739 l 7.72461,0 z" />
      <path
         id="path4162"
         style="font-style:normal;font-variant:normal;font-weight:500;font-stretch:normal;font-size:35px;font-family:Futura;-inkscape-font-specification:'Futura Medium';fill:#000000"
         d="m 204.91015,84.470856 0,5.109863 q -1.31592,-1.606445 -2.3584,-2.20459 -1.02539,-0.615234 -2.40967,-0.615234 -2.17041,0 -3.60595,1.520996 -1.43555,1.520996 -1.43555,3.811035 0,2.341309 1.38428,3.845215 1.40136,1.503906 3.57177,1.503906 1.38428,0 2.44385,-0.598144 1.02539,-0.581055 2.40967,-2.25586 l 0,5.075684 q -2.34131,1.213383 -4.68262,1.213383 -3.8623,0 -6.45996,-2.495121 -2.59766,-2.512208 -2.59766,-6.237793 0,-3.725586 2.63184,-6.289063 2.63184,-2.563477 6.45996,-2.563477 2.46094,0 4.64844,1.1792 z" />
      <path
         id="path4164"
         style="font-style:normal;font-variant:normal;font-weight:500;font-stretch:normal;font-size:35px;font-family:Futura;-inkscape-font-specification:'Futura Medium';fill:#000000"
         d="m 207.8496,91.956207 q 0,-3.605957 2.58057,-6.135254 2.58056,-2.529297 6.28906,-2.529297 3.72559,0 6.32324,2.546387 2.56348,2.546387 2.56348,6.254883 0,3.742676 -2.58057,6.271973 -2.59765,2.512211 -6.37451,2.512211 -3.74267,0 -6.27197,-2.563481 -2.5293,-2.529297 -2.5293,-6.357422 z m 3.93067,0.06836 q 0,2.495117 1.333,3.947754 1.36719,1.469726 3.60596,1.469726 2.25586,0 3.60596,-1.452637 1.3501,-1.452636 1.3501,-3.879394 0,-2.426758 -1.3501,-3.879395 -1.36719,-1.469726 -3.60596,-1.469726 -2.20459,0 -3.57178,1.469726 -1.36718,1.469727 -1.36718,3.793946 z" />
    </g>
    <g
       id="text3336"
       style="font-style:normal;font-weight:normal;font-size:35px;line-height:125%;font-family:Sans;letter-spacing:0px;word-spacing:0px;fill:#000000;fill-opacity:1;stroke:none;stroke-width:1px;stroke-linecap:butt;stroke-linejoin:miter;stroke-opacity:1">
      <path
         id="path4167"
         style="font-style:normal;font-variant:normal;font-weight:500;font-stretch:normal;font-size:35px;font-family:Futura;-inkscape-font-specification:'Futura Medium';fill:#ffffff"
         d="m 79.428139,96.757896 0,-26.386718 3.964843,0 q 2.648926,0 4.221192,0.410156 1.589355,0.410156 2.683105,1.384277 1.11084,1.008301 1.760254,2.512207 0.666504,1.520996 0.666504,3.076172 0,2.836914 -2.17041,4.802246 2.102051,0.717774 3.31543,2.512207 1.230468,1.777344 1.230468,4.135742 0,3.093262 -2.1875,5.229493 -1.315918,1.315918 -2.956543,1.828613 -1.794433,0.495605 -4.494628,0.495605 l -6.032715,0 z m 3.981933,-15.056152 1.247559,0 q 2.22168,0 3.24707,-0.974121 1.042481,-0.991211 1.042481,-2.905273 0,-1.862793 -1.059571,-2.819825 -1.05957,-0.974121 -3.076171,-0.974121 l -1.401368,0 0,7.67334 z m 0,11.313477 2.460938,0 q 2.700195,0 3.964844,-1.059571 1.333007,-1.145019 1.333007,-2.905273 0,-1.708984 -1.281738,-2.871094 -1.247558,-1.145019 -4.460449,-1.145019 l -2.016602,0 0,7.980957 z" />
      <path
         id="path4169"
         style="font-style:normal;font-variant:normal;font-weight:500;font-stretch:normal;font-size:35px;font-family:Futura;-inkscape-font-specification:'Futura Medium';fill:#ffffff"
         d="m 104.65275,93.664635 -7.485353,-13.552246 4.460453,0 5.09277,9.570312 4.75098,-9.570312 4.34082,0 -13.26172,25.703121 -4.392093,0 6.494143,-12.150875 z" />
      <path
         id="path4171"
         style="font-style:normal;font-variant:normal;font-weight:500;font-stretch:normal;font-size:35px;font-family:Futura;-inkscape-font-specification:'Futura Medium';fill:#ffffff"
         d="m 122.37492,83.701256 0,13.05664 -3.84522,0 0,-13.05664 -1.64062,0 0,-3.588867 1.64062,0 0,-6.101075 3.84522,0 0,6.101075 2.99072,0 0,3.588867 -2.99072,0 z" />
      <path
         id="path4173"
         style="font-style:normal;font-variant:normal;font-weight:500;font-stretch:normal;font-size:35px;font-family:Futura;-inkscape-font-specification:'Futura Medium';fill:#ffffff"
         d="m 143.51505,89.340904 -11.92871,0 q 0.15381,2.050781 1.33301,3.26416 1.1792,1.196289 3.0249,1.196289 1.43555,0 2.37549,-0.683593 0.92285,-0.683594 2.10205,-2.529297 l 3.24707,1.811523 q -0.75195,1.281739 -1.58935,2.20459 -0.83741,0.905762 -1.79444,1.503906 -0.95703,0.581055 -2.06787,0.854493 -1.11084,0.273437 -2.40967,0.273437 -3.72558,0 -5.98144,-2.392578 -2.25586,-2.409668 -2.25586,-6.391602 0,-3.947754 2.1875,-6.391601 2.20459,-2.409668 5.84473,-2.409668 3.67431,0 5.81054,2.341308 2.11914,2.324219 2.11914,6.442872 l -0.0171,0.905761 z m -3.94775,-3.144531 q -0.80322,-3.076172 -3.8794,-3.076172 -0.70068,0 -1.31591,0.222168 -0.61524,0.205078 -1.12793,0.615234 -0.49561,0.393067 -0.8545,0.957032 -0.35888,0.563965 -0.54687,1.281738 l 7.72461,0 z" />
      <path
         id="path4175"
         style="font-style:normal;font-variant:normal;font-weight:500;font-stretch:normal;font-size:35px;font-family:Futura;-inkscape-font-specification:'Futura Medium';fill:#ffffff"
         d="m 160.00675,67.89315 3.86231,0 0,28.864746 -3.86231,0 0,-1.743164 q -2.27295,2.22168 -5.14404,2.22168 -3.41797,0 -5.67383,-2.495117 -2.23877,-2.546387 -2.23877,-6.357422 0,-3.725586 2.23877,-6.220703 2.22168,-2.512207 5.58838,-2.512207 2.92236,0 5.22949,2.392578 l 0,-14.150391 z m -9.12597,20.490723 q 0,2.392578 1.28173,3.896484 1.31592,1.520996 3.31543,1.520996 2.13623,0 3.45215,-1.469726 1.31592,-1.520996 1.31592,-3.862305 0,-2.341308 -1.31592,-3.862304 -1.31592,-1.486817 -3.41797,-1.486817 -1.98242,0 -3.31543,1.503906 -1.31591,1.520996 -1.31591,3.759766 z" />
      <path
         id="path4177"
         style="font-style:normal;font-variant:normal;font-weight:500;font-stretch:normal;font-size:35px;font-family:Futura;-inkscape-font-specification:'Futura Medium';fill:#ffffff"
         d="m 183.88126,89.340904 -11.92871,0 q 0.15381,2.050781 1.33301,3.26416 1.1792,1.196289 3.0249,1.196289 1.43555,0 2.37549,-0.683593 0.92285,-0.683594 2.10205,-2.529297 l 3.24707,1.811523 q -0.75195,1.281739 -1.58935,2.20459 -0.83741,0.905762 -1.79444,1.503906 -0.95703,0.581055 -2.06787,0.854493 -1.11084,0.273437 -2.40967,0.273437 -3.72558,0 -5.98144,-2.392578 -2.25586,-2.409668 -2.25586,-6.391602 0,-3.947754 2.1875,-6.391601 2.20459,-2.409668 5.84473,-2.409668 3.67431,0 5.81054,2.341308 2.11914,2.324219 2.11914,6.442872 l -0.0171,0.905761 z m -3.94775,-3.144531 q -0.80322,-3.076172 -3.87939,-3.076172 -0.70069,0 -1.31592,0.222168 -0.61524,0.205078 -1.12793,0.615234 -0.49561,0.393067 -0.85449,0.957032 -0.35889,0.563965 -0.54688,1.281738 l 7.72461,0 z" />
      <path
         id="path4179"
         style="font-style:normal;font-variant:normal;font-weight:500;font-stretch:normal;font-size:35px;font-family:Futura;-inkscape-font-specification:'Futura Medium';fill:#ffffff"
         d="m 201.02238,80.830162 0,5.109863 q -1.31592,-1.606445 -2.3584,-2.20459 -1.02539,-0.615234 -2.40967,-0.615234 -2.17041,0 -3.60596,1.520996 -1.43554,1.520996 -1.43554,3.811035 0,2.341309 1.38427,3.845215 1.40137,1.503906 3.57178,1.503906 1.38428,0 2.44385,-0.598144 1.02539,-0.581055 2.40967,-2.255859 l 0,5.075683 q -2.34131,1.213379 -4.68262,1.213379 -3.8623,0 -6.45996,-2.495117 -2.59766,-2.512207 -2.59766,-6.237793 0,-3.725586 2.63184,-6.289063 2.63183,-2.563476 6.45996,-2.563476 2.46094,0 4.64844,1.179199 z" />
      <path
         id="path4181"
         style="font-style:normal;font-variant:normal;font-weight:500;font-stretch:normal;font-size:35px;font-family:Futura;-inkscape-font-specification:'Futura Medium';fill:#ffffff"
         d="m 203.96183,88.315514 q 0,-3.605957 2.58057,-6.135254 2.58056,-2.529297 6.28906,-2.529297 3.72558,0 6.32324,2.546387 2.56348,2.546386 2.56348,6.254882 0,3.742676 -2.58057,6.271973 -2.59765,2.512207 -6.37451,2.512207 -3.74268,0 -6.27197,-2.563477 -2.5293,-2.529296 -2.5293,-6.357421 z m 3.93066,0.06836 q 0,2.495117 1.33301,3.947754 1.36719,1.469726 3.60596,1.469726 2.25586,0 3.60596,-1.452636 1.35009,-1.452637 1.35009,-3.879395 0,-2.426758 -1.35009,-3.879394 -1.36719,-1.469727 -3.60596,-1.469727 -2.20459,0 -3.57178,1.469727 -1.36719,1.469726 -1.36719,3.793945 z" />
    </g>
  </g>
</svg>
